# xmcd
#
# Track frame offsets:
#	150
#	16366
#	30697
#	48781
#	65916
#	82605
#	100212
#	116343
#	133453
#	152954
#	169233
#	183852
#	200042
#	216615
#	234122
#	250839
#	267279
#	283969
#	296780
#	313986
#
# Disc length: 4406 seconds
#
# Revision: 5
# Processed by: cddbd v1.5.2PL0 Copyright (c) Steve Scherf et al.
# Submitted via: audiograbber 1.83.01
#
DISCID=32113414
DTITLE=Dragostea Summer Hits CD 1 - Dragostea Summer Hits CD 1
DYEAR=2004
DGENRE=Pop
TTITLE0=O-Zone - Dragostea din tei
TTITLE1=Sandy - Unnatural blonde
TTITLE2=Baby Bash - Suga suga
TTITLE3=Black Eyed Peas - Hey mama
TTITLE4=Enrique Iglesias feat. Kelis - Not in love
TTITLE5=Nelly Furtado - Powerless (say what you want)
TTITLE6=Ronan Keating feat. Leann Rimes - Last thing on my mind (metro mix)
TTITLE7=Natasha Thomas - It's over now
TTITLE8=Melendiz - Fuck you all
TTITLE9=Jamelia - Superstar
TTITLE10=Kevin Lyttle - Turn me on
TTITLE11=Vany - Dramaqueen
TTITLE12=Sugababes - In the middle
TTITLE13=Mustafa Sandal - Araba
TTITLE14=DJ Casper - Cha cha slide
TTITLE15=Martin Solveig - Rocking music
TTITLE16=Ian Pooley feat. Jade And Danielle - Heaven
TTITLE17=LMC vs. U2 - Take me to the clouds above
TTITLE18=Mousse T. feat. Emma Lanford - Is it 'cos I'm cool?
TTITLE19=Jam and Spoon feat. Rea - Set me free (empty rooms)
EXTD=YEAR: 2004
EXTT0=
EXTT1=
EXTT2=
EXTT3=
EXTT4=
EXTT5=
EXTT6=
EXTT7=
EXTT8=
EXTT9=
EXTT10=
EXTT11=
EXTT12=
EXTT13=
EXTT14=
EXTT15=
EXTT16=
EXTT17=
EXTT18=
EXTT19=
PLAYORDER=
